# xmcd
#
# Track frame offsets:
#   150
#   18910
#   33111
#   47464
#   68683
#   84209
#   97897
#   111451
#   130629
#   143242
#   160078
#   174352
#   190226
#   209319
#   225808
#   247460
#   265381
#   279692
#
# Disc length: 3944 seconds
#
# Revision: 0
# Processed by: cddbd v1.5.2PL0 Copyright (c) Steve Scherf et al.
# Submitted via: Click'N Design 3D 5.1
#
DISCID=ea0f6612
DTITLE=Many Directions - Bob Gordon
DYEAR=2008
DGENRE=Alternative
TTITLE0=Already Gone
TTITLE1=Call Me Lonesome
TTITLE2=Everybody's Talkin'
TTITLE3=Get You Outa My Heart
TTITLE4=Always On My Mind
TTITLE5=Ad-Hoc Blues
TTITLE6=Six Pack To Go
TTITLE7=Blue Eyes Cryin' In The Rain
TTITLE8=Hound Dog
TTITLE9=All My Friends
TTITLE10=Nine-Pound Hammer
TTITLE11=Talk Back Tremblin' Lips
TTITLE12=Candle Light
TTITLE13=Break My Mind
TTITLE14=Peaceful Easy Feeling
TTITLE15=Early Morning Rain
TTITLE16=Abilene
TTITLE17=Satisfied Mind
EXTD=
EXTT0=
EXTT1=
EXTT2=
EXTT3=
EXTT4=
EXTT5=
EXTT6=
EXTT7=
EXTT8=
EXTT9=
EXTT10=
EXTT11=
EXTT12=
EXTT13=
EXTT14=
EXTT15=
EXTT16=
EXTT17=
PLAYORDER=
